<?xml version="1.0" standalone="no"?>
<!DOCTYPE svg PUBLIC "-//W3C//DTD SVG 20010904//EN"
 "http://www.w3.org/TR/2001/REC-SVG-20010904/DTD/svg10.dtd">

<svg version="1.0" xmlns="http://www.w3.org/2000/svg"
 width="1280.000000pt" height="853.000000pt" viewBox="0 0 1280.000000 853.000000"
 preserveAspectRatio="xMidYMid meet">
  <defs>

    <linearGradient id="gradient" x1="0%" y1="70%" x2="70%" y2="0%">
        <stop offset="0%" stop-color="rgba(255, 1, 1, 0.52)" stop-opacity="0.52" />
        <stop offset="49%" stop-color="rgba(239, 218, 4, 0.56)" stop-opacity="0.56" />
        <stop offset="60%" stop-color="rgba(27, 214, 229, 0.56)" stop-opacity="0.56" />
        <stop offset="90%" stop-color="rgba(255, 1, 1, 0.52)" stop-opacity="0.52" />
    </linearGradient>

      <mask id='mask-1' x='0' y='0' width='1280' height='853'>
        <g transform="translate(0.000000,853.000000) scale(0.100000,-0.100000)"
        fill="#A9A9A9" stroke="none">
        <path d="M8149 8501 c-51 -52 -33 -128 37 -157 74 -31 162 -7 197 54 23 39 17
        73 -18 108 -22 21 -33 24 -105 24 -77 0 -83 -2 -111 -29z"/>
        <path d="M5648 8462 c-33 -4 -58 -35 -51 -63 11 -40 102 -89 164 -89 35 0 76
        18 83 36 9 23 -15 63 -50 84 -35 22 -104 37 -146 32z"/>
        <path d="M3595 8284 c-42 -10 -65 -28 -65 -50 0 -66 165 -117 255 -79 63 26
        55 69 -17 103 -44 21 -136 34 -173 26z"/>
        <path d="M9523 8255 c-63 -27 -51 -84 25 -117 142 -63 330 -6 252 77 -47 50
        -203 73 -277 40z"/>
        <path d="M10415 8256 c-103 -46 -110 -173 -12 -219 128 -61 276 44 222 158
        -31 65 -134 95 -210 61z"/>
        <path d="M6690 8202 c-41 -42 -41 -89 1 -137 56 -64 152 -68 199 -8 31 40 26
        87 -14 130 -30 33 -39 37 -94 41 -58 4 -63 3 -92 -26z"/>
        <path d="M1155 8186 c-89 -42 -143 -119 -110 -156 15 -17 13 -19 -48 -48 -111
        -52 -189 -139 -236 -265 -32 -86 -26 -88 30 -7 71 101 130 157 197 188 51 24
        68 27 167 27 136 -1 215 -27 246 -80 50 -83 183 -76 205 11 12 48 -34 90 -126
        114 -25 6 -75 20 -112 30 -37 10 -94 20 -127 22 -34 2 -61 5 -61 8 0 3 16 14
        36 25 67 36 104 111 72 143 -19 19 -79 14 -133 -12z"/>
        <path d="M8853 8180 c-27 -16 -33 -26 -33 -55 0 -29 9 -44 44 -80 25 -24 56
        -47 70 -51 l26 -6 -20 -25 c-11 -14 -20 -35 -21 -47 0 -11 -3 -16 -5 -9 -10
        23 -69 35 -113 23 -110 -29 -78 -145 36 -127 38 7 83 41 83 65 0 9 12 4 34
        -16 93 -82 274 -49 276 49 0 31 -39 76 -78 90 -24 8 -28 14 -24 38 9 60 -55
        130 -144 157 -64 19 -93 18 -131 -6z"/>
        <path d="M5964 8150 c-54 -22 -68 -86 -31 -140 69 -104 227 -97 227 9 0 90
        -113 165 -196 131z"/>
        <path d="M2554 8136 c-35 -16 -64 -51 -64 -79 0 -9 -8 -20 -17 -23 -85 -26
        -119 -68 -110 -137 3 -21 15 -50 28 -63 25 -26 82 -49 104 -40 10 4 9 -4 -5
        -27 -31 -50 -26 -93 14 -133 28 -28 41 -34 78 -34 50 0 82 19 104 62 31 59
        -13 141 -82 154 l-33 6 20 31 c10 18 19 42 19 55 0 18 6 22 29 22 111 0 166
        89 101 163 -45 52 -124 70 -186 43z"/>
        <path d="M4786 8119 c-51 -40 -23 -109 44 -109 29 0 43 6 54 22 22 31 20 64
        -4 88 -26 26 -60 25 -94 -1z"/>
        <path d="M11500 8049 c-35 -14 -70 -49 -70 -71 0 -11 12 -23 28 -30 15 -7 28
        -13 30 -14 2 -1 -6 -17 -17 -35 -25 -40 -26 -70 -7 -107 61 -117 286 -36 286
        103 0 47 -34 88 -82 100 -16 4 -25 11 -22 17 3 5 -2 18 -12 29 -19 21 -90 25
        -134 8z"/>
        <path d="M4912 8034 c-36 -25 -45 -60 -26 -100 30 -63 128 -93 193 -59 65 33
        50 119 -29 160 -38 20 -110 19 -138 -1z"/>
        <path d="M12213 8016 c-76 -25 -133 -81 -133 -134 0 -36 42 -62 101 -62 163 0
        259 180 109 204 -19 3 -54 -1 -77 -8z"/>
        <path d="M5225 7969 c-47 -28 -47 -67 0 -108 20 -17 40 -31 45 -31 5 0 16 -13
        24 -29 22 -41 66 -57 117 -42 33 10 44 20 60 54 10 23 26 51 34 61 31 40 10
        73 -39 60 -14 -3 -37 3 -60 17 -44 25 -150 36 -181 18z"/>
        <path d="M3478 7906 c-21 -15 -23 -47 -6 -64 9 -9 5 -12 -19 -12 -98 0 -67
        -102 49 -159 69 -35 103 -38 137 -15 18 13 21 22 16 43 -8 33 -58 85 -104 108
        l-36 17 32 6 c18 3 42 13 54 23 19 16 19 20 6 40 -17 27 -101 35 -129 13z"/>
        <path d="M7344 7826 c-20 -20 -34 -44 -34 -59 0 -18 -7 -27 -24 -31 -61 -15
        -35 -84 48 -125 l47 -24 -27 -18 c-15 -10 -31 -24 -36 -33 -12 -22 18 -46 57
        -46 44 0 137 35 160 59 26 30 16 55 -25 59 -31 3 -37 7 -47 40 -10 31 -9 38 4
        46 8 4 21 23 29 42 12 29 12 39 0 68 -28 66 -98 76 -152 22z"/>
        <path d="M1060 7794 c-47 -21 -77 -50 -90 -90 -8 -24 -18 -34 -33 -34 -35 0
        -106 -40 -132 -74 -34 -45 -31 -50 11 -21 46 31 76 35 50 6 -41 -45 -17 -118
        49 -147 l30 -13 -41 -1 c-34 0 -46 6 -83 43 -44 43 -81 104 -81 132 0 9 -4 13
        -10 10 -20 -13 -11 -125 14 -175 13 -27 22 -51 19 -54 -4 -3 -1 -6 7 -6 7 0
        28 -14 48 -31 40 -35 120 -76 169 -85 l33 -6 -30 -28 c-32 -29 -38 -58 -18
        -78 27 -27 111 -5 141 38 17 24 28 15 52 -43 23 -55 20 -91 -10 -107 -57 -30
        -244 42 -334 129 -68 66 -93 120 -101 211 l-6 75 -27 -55 c-33 -67 -34 -120
        -5 -197 27 -73 119 -168 198 -205 56 -27 173 -53 189 -44 5 3 12 -5 15 -18 13
        -53 101 -39 172 26 37 34 44 47 42 72 -2 22 -9 32 -23 34 -17 2 -20 11 -21 51
        0 31 -10 68 -25 99 l-25 49 36 19 c41 22 120 137 120 174 0 49 -66 135 -133
        173 -27 15 -36 26 -31 37 4 8 11 27 17 41 32 80 -58 134 -153 93z m131 -262
        c72 -46 124 -120 105 -151 -9 -14 -101 -41 -139 -41 -15 0 -49 12 -73 26 -25
        15 -64 32 -87 39 -32 11 -36 14 -17 15 38 1 107 35 124 62 9 14 17 36 18 51 3
        34 13 34 69 -1z"/>
        <path d="M5492 7787 c-45 -48 -14 -117 52 -117 37 0 76 36 76 70 0 10 -9 29
        -21 44 -27 34 -77 36 -107 3z"/>
        <path d="M7963 7800 c-12 -5 -28 -18 -35 -30 -8 -13 -23 -20 -43 -20 -62 0
        -119 -59 -101 -105 9 -25 79 -19 114 10 l29 24 28 -29 c107 -112 281 -47 206
        76 -36 60 -141 99 -198 74z"/>
        <path d="M12417 7776 c-99 -36 -112 -117 -28 -173 72 -48 201 -20 225 49 29
        83 -95 161 -197 124z"/>
        <path d="M4174 7766 c-43 -19 -50 -34 -27 -58 39 -38 170 -31 193 11 24 45
        -96 79 -166 47z"/>
        <path d="M10249 7756 c-79 -28 -119 -77 -119 -144 0 -36 6 -50 33 -77 71 -71
        193 -53 260 37 30 40 28 110 -4 144 -46 50 -104 64 -170 40z"/>
        <path d="M4594 7731 c-17 -10 -41 -22 -55 -26 -40 -12 -59 -36 -59 -73 0 -95
        127 -180 227 -153 56 15 109 67 118 114 21 108 -131 199 -231 138z"/>
        <path d="M11509 7688 c-21 -5 -47 -20 -60 -34 -19 -20 -21 -28 -11 -48 21 -48
        112 -75 184 -56 48 13 88 45 88 70 0 24 -40 57 -85 69 -47 13 -66 13 -116 -1z"/>
        <path d="M1976 7607 c-47 -26 -81 -69 -73 -91 10 -25 69 -20 113 10 48 33 63
        52 64 82 0 18 -5 22 -32 22 -18 0 -51 -10 -72 -23z"/>
        <path d="M5636 7574 c-20 -20 -20 -22 4 -61 22 -36 50 -54 100 -62 29 -5 35
        -11 41 -40 4 -18 19 -45 33 -60 22 -21 36 -26 77 -26 45 0 54 4 80 33 47 53
        34 143 -26 170 -31 14 -90 16 -114 2 -14 -7 -23 -4 -37 11 -43 48 -127 65
        -158 33z"/>
        <path d="M7190 7483 c-74 -7 -80 -11 -80 -47 0 -38 20 -50 103 -62 39 -5 58
        -2 97 16 27 13 51 29 54 36 19 48 -48 70 -174 57z"/>
        <path d="M11508 7466 c-116 -32 -167 -118 -102 -174 24 -21 35 -24 94 -20 78
        4 139 37 166 89 39 76 -50 135 -158 105z"/>
        <path d="M4291 7387 c-19 -10 -38 -31 -47 -55 -1 -1 -13 2 -28 8 -20 7 -36 6
        -61 -4 -57 -24 -74 -88 -32 -126 31 -30 93 -22 123 15 l21 27 34 -21 c52 -32
        113 -28 150 8 34 35 37 68 8 105 -41 52 -115 71 -168 43z"/>
        <path d="M2955 7371 c-41 -18 -95 -72 -95 -94 1 -35 56 -62 104 -51 74 16 146
        73 146 115 0 49 -80 65 -155 30z"/>
        <path d="M8420 7333 c-30 -11 -70 -57 -76 -89 -12 -66 46 -134 116 -134 73 0
        129 65 116 135 -12 64 -94 110 -156 88z"/>
        <path d="M11223 7333 c-39 -8 -73 -52 -73 -95 0 -86 101 -130 168 -73 38 32
        47 67 27 109 -21 44 -71 68 -122 59z"/>
        <path d="M7883 7279 c-80 -39 -100 -117 -44 -172 43 -43 121 -49 206 -15 l60
        24 0 56 c0 42 -6 62 -20 79 -46 51 -132 63 -202 28z"/>
        <path d="M8921 7283 c-41 -20 -71 -67 -71 -111 0 -44 14 -68 50 -87 86 -44
        197 14 207 109 5 40 2 48 -25 76 -26 25 -38 30 -79 30 -26 0 -63 -8 -82 -17z"/>
        <path d="M5370 7281 c-117 -38 -133 -106 -27 -118 100 -12 206 62 153 106 -18
        15 -95 22 -126 12z"/>
        <path d="M612 7198 c-43 -92 -55 -156 -50 -262 6 -104 37 -205 90 -293 18 -30
        89 -117 159 -193 72 -80 137 -162 153 -194 32 -63 44 -152 27 -210 -6 -22 -9
        -41 -7 -43 1 -2 25 32 52 75 46 73 49 81 49 145 0 56 2 66 15 61 65 -27 158
        -22 161 9 7 65 -73 120 -177 122 l-61 2 -129 135 c-133 139 -178 202 -221 309
        -35 87 -50 218 -36 316 6 43 10 79 8 81 -2 2 -17 -25 -33 -60z"/>
        <path d="M9665 7238 c-86 -31 -154 -109 -141 -161 17 -71 171 -29 237 64 29
        41 32 66 10 88 -23 23 -59 26 -106 9z"/>
        <path d="M10685 7220 c-228 -31 -407 -186 -485 -419 -11 -35 -19 -65 -17 -67
        2 -3 17 15 32 38 42 64 162 185 229 230 95 65 167 90 277 96 114 5 197 -15
        292 -72 l57 -35 23 37 c13 20 33 54 45 74 l23 36 -58 22 c-143 54 -300 76
        -418 60z"/>
        <path d="M1518 7198 c-16 -5 -28 -15 -28 -21 0 -8 -4 -7 -12 1 -28 28 -126 4
        -147 -36 -30 -56 78 -64 135 -11 22 20 24 21 40 4 23 -22 58 -35 99 -35 37 0
        69 25 61 47 -3 8 -6 16 -6 19 0 7 -55 32 -85 37 -16 3 -42 1 -57 -5z"/>
        <path d="M6068 7129 c-38 -22 -13 -76 49 -108 32 -16 88 -14 104 5 37 45 -97
        136 -153 103z"/>
        <path d="M8436 7075 c-75 -27 -98 -77 -41 -91 58 -14 167 23 182 63 15 39 -65
        55 -141 28z"/>
        <path d="M3723 7060 c-38 -23 -53 -48 -53 -89 0 -36 30 -71 62 -71 20 0 20 -1
        3 -20 -61 -67 145 -198 236 -150 27 15 24 62 -6 98 -30 36 -100 72 -138 72
        -34 0 -34 4 5 39 25 22 32 36 32 66 0 69 -73 97 -141 55z"/>
        <path d="M4735 7064 c-77 -40 -114 -114 -89 -179 16 -40 113 -59 166 -31 30
        16 38 12 38 -20 0 -34 56 -92 101 -105 148 -45 254 155 132 248 -31 24 -47 28
        -101 29 -56 1 -66 4 -73 21 -19 51 -111 70 -174 37z"/>
        <path d="M2130 6980 c-54 -54 -60 -64 -60 -100 0 -74 75 -116 164 -92 25 6 48
        7 63 1 44 -17 118 -11 147 12 33 26 33 57 -1 102 -16 20 -36 47 -45 61 -25 35
        -114 76 -165 76 -39 0 -48 -5 -103 -60z"/>
        <path d="M11729 6937 c-92 -62 -40 -177 81 -177 54 0 107 30 128 72 17 37 -5
        91 -47 112 -45 24 -121 21 -162 -7z"/>
        <path d="M6815 6906 c-153 -31 -259 -83 -363 -180 -117 -110 -194 -252 -226
        -423 -19 -102 -30 -221 -18 -208 5 6 26 60 47 120 21 61 39 112 41 114 1 2 17
        -13 35 -34 18 -20 54 -49 81 -64 44 -25 47 -29 32 -42 -21 -18 -114 -149 -114
        -162 0 -5 16 5 35 22 48 42 98 66 192 93 111 32 330 33 417 0 76 -28 120 -63
        142 -111 12 -28 22 -38 33 -34 25 9 -59 -76 -104 -105 -22 -14 -62 -33 -90
        -43 -49 -17 -50 -17 -68 2 -16 17 -32 19 -136 19 -75 0 -135 -5 -168 -15 -44
        -13 -56 -13 -90 -1 -91 32 -170 81 -230 142 -61 62 -62 63 -57 31 12 -70 40
        -143 71 -191 19 -27 31 -56 29 -63 -8 -20 -26 -6 -27 20 -1 14 -6 5 -16 -23
        -9 -29 -13 -69 -10 -113 15 -232 291 -457 562 -457 147 0 230 46 332 183 62
        83 68 95 67 138 -1 57 -47 141 -112 200 l-43 40 39 44 c36 41 60 101 88 217 5
        23 10 26 33 22 37 -8 95 18 117 51 29 44 24 93 -14 126 -51 45 -125 36 -169
        -21 -10 -12 -15 -13 -30 -3 -60 42 -125 75 -173 90 -71 22 -266 23 -325 1
        l-39 -15 -56 60 c-56 60 -113 97 -149 97 -33 0 -34 19 -5 61 72 105 185 177
        353 225 85 24 105 26 218 22 104 -4 128 -2 144 11 22 18 61 148 48 157 -22 13
        -257 13 -324 0z m151 -1252 c32 -19 71 -47 87 -62 40 -38 69 -104 65 -149 -3
        -36 -5 -38 -63 -57 -90 -30 -264 -28 -365 3 -117 36 -207 88 -282 163 -38 37
        -68 71 -68 75 0 4 23 6 50 5 37 -3 58 1 78 14 23 16 45 18 142 16 66 -1 145 4
        185 12 102 20 106 19 171 -20z"/>
        <path d="M10864 6875 c-46 -27 -74 -75 -74 -125 0 -27 -3 -31 -17 -25 -131 55
        -276 65 -374 27 -57 -23 -131 -79 -149 -113 -9 -16 -5 -15 25 6 100 67 354 33
        509 -70 63 -42 103 -94 116 -150 l8 -37 -51 -23 c-29 -13 -77 -27 -108 -30
        -53 -7 -59 -5 -111 29 -69 46 -154 76 -217 76 -42 0 -55 5 -94 38 -61 50 -104
        105 -135 172 l-26 55 -9 -35 c-15 -58 -2 -147 32 -213 29 -56 30 -61 14 -72
        -16 -12 -14 -12 10 -8 21 4 34 -2 59 -26 78 -76 196 -129 306 -139 56 -4 66
        -8 94 -40 51 -59 79 -132 76 -196 l-3 -56 -80 1 c-110 1 -128 10 -66 32 88 31
        125 119 79 187 -13 19 -35 40 -48 47 -36 18 -110 16 -149 -5 -58 -31 -88 -112
        -60 -164 23 -43 -3 -27 -79 49 -114 112 -182 248 -182 360 0 24 -4 43 -9 43
        -5 0 -19 -26 -32 -57 -19 -46 -24 -76 -24 -143 0 -77 3 -92 34 -155 86 -175
        288 -296 472 -283 64 5 70 8 152 71 64 51 86 74 91 97 8 40 -11 123 -40 182
        l-24 48 37 19 c46 23 67 47 119 131 52 86 53 138 7 204 -18 26 -33 49 -33 51
        0 3 12 5 28 5 65 0 132 73 132 145 0 99 -110 148 -206 90z"/>
        <path d="M9455 6766 c-42 -18 -95 -65 -106 -93 -26 -68 64 -87 157 -34 73 42
        104 97 72 129 -16 16 -85 15 -123 -2z"/>
        <path d="M4388 6684 c-66 -35 -10 -104 85 -104 34 0 53 6 67 20 11 11 20 23
        20 28 0 21 -35 52 -68 62 -49 13 -72 12 -104 -6z"/>
        <path d="M6890 6668 c-48 -32 -46 -53 3 -52 41 2 92 32 92 55 0 24 -57 22 -95
        -3z"/>
        <path d="M949 6654 c-19 -23 -2 -45 64 -78 67 -34 156 -41 182 -15 14 14 14
        18 -5 42 -42 53 -209 89 -241 51z"/>
        <path d="M7953 6649 c-24 -12 -43 -25 -43 -30 0 -5 -21 -9 -46 -9 -37 0 -51
        -5 -75 -29 -36 -36 -36 -43 -1 -82 27 -30 33 -32 138 -41 60 -5 118 -7 130 -5
        19 3 20 1 10 -25 -16 -43 16 -71 91 -75 80 -6 147 27 151 74 4 44 -38 66 -118
        61 -54 -3 -57 -2 -44 13 27 30 28 81 3 113 -45 57 -124 71 -196 35z"/>
        <path d="M2634 6609 c-3 -6 6 -24 21 -39 l28 -29 -27 -31 c-50 -60 -27 -147
        47 -181 53 -23 71 -23 124 0 105 48 89 185 -26 222 -20 6 -45 20 -56 30 -37
        33 -98 49 -111 28z"/>
        <path d="M3284 6576 c-39 -39 -45 -86 -19 -136 l16 -30 -38 0 c-55 0 -109 -18
        -140 -45 l-28 -25 24 -20 c44 -38 217 -18 245 29 4 6 31 11 59 11 62 0 93 18
        113 67 26 60 -10 135 -83 172 -12 6 -43 11 -68 11 -40 0 -52 -5 -81 -34z"/>
        <path d="M5017 6595 c-118 -42 -114 -139 6 -139 126 0 205 108 106 143 -41 14
        -65 13 -112 -4z"/>
        <path d="M2396 6565 c-12 -12 -20 -13 -35 -5 -51 27 -142 -6 -127 -47 3 -8 6
        -19 6 -23 0 -20 67 -84 105 -101 52 -24 107 -24 128 -1 23 25 21 48 -4 89 -16
        25 -18 34 -8 33 56 -8 69 29 19 55 -37 19 -64 19 -84 0z"/>
        <path d="M7403 6573 c-26 -10 -14 -59 24 -98 85 -88 239 -111 220 -33 -11 42
        -45 75 -109 107 -56 29 -104 37 -135 24z"/>
        <path d="M6727 6540 c-180 -57 -214 -191 -41 -159 141 26 249 138 163 168 -42
        14 -53 14 -122 -9z"/>
        <path d="M5544 6529 c-42 -12 -91 -59 -100 -94 -6 -23 -2 -32 16 -47 29 -24
        64 -23 118 3 40 20 82 68 82 95 0 38 -60 61 -116 43z"/>
        <path d="M11177 6515 c-51 -18 -75 -41 -87 -84 -8 -30 -6 -43 13 -80 51 -104
        214 -116 271 -21 60 103 -74 229 -197 185z"/>
        <path d="M8949 6481 c-23 -19 -23 -21 -6 -38 21 -21 143 -31 176 -14 29 16 27
        45 -4 59 -43 20 -139 15 -166 -7z"/>
        <path d="M3591 6473 c-71 -35 -71 -113 0 -135 69 -20 159 30 159 88 0 55 -90
        81 -159 47z"/>
        <path d="M400 6458 c-43 -12 -80 -45 -80 -71 0 -10 15 -34 33 -51 58 -59 181
        -71 255 -26 26 16 32 26 32 54 0 42 -31 70 -103 91 -57 17 -86 18 -137 3z"/>
        <path d="M4293 6436 c-33 -16 -60 -37 -73 -58 -25 -42 -25 -44 5 -73 31 -32
        83 -33 150 -1 55 25 85 61 85 99 0 56 -84 73 -167 33z"/>
        <path d="M3778 6339 c-25 -14 -22 -31 10 -62 36 -35 120 -67 172 -67 33 0 40
        -3 40 -20 0 -21 35 -43 85 -54 28 -6 31 -10 27 -39 -7 -59 63 -117 140 -117
        43 1 111 32 132 61 9 13 16 40 16 60 0 72 -97 124 -186 100 -30 -8 -48 -7 -79
        4 -22 8 -54 14 -71 15 -26 0 -32 5 -37 28 -14 63 -188 127 -249 91z"/>
        <path d="M9255 6331 c-133 -61 -106 -194 28 -137 39 16 97 79 97 106 0 49 -56
        63 -125 31z"/>
        <path d="M1693 6261 c-81 -37 -94 -122 -28 -180 65 -57 168 -50 210 15 13 20
        39 40 71 53 88 37 108 82 50 110 -22 10 -40 11 -85 2 -45 -9 -64 -8 -96 4 -53
        19 -72 18 -122 -4z"/>
        <path d="M10034 6195 c-14 -25 -38 -78 -52 -118 -24 -66 -26 -86 -27 -227 0
        -149 1 -158 32 -243 49 -139 112 -231 266 -395 178 -189 236 -276 262 -396 5
        -25 4 -28 -12 -21 -74 30 -135 21 -141 -23 -5 -35 33 -87 83 -113 25 -13 45
        -31 46 -39 0 -10 2 -11 6 -2 2 6 21 12 42 12 20 0 42 5 49 12 16 16 15 59 -3
        82 -13 17 -11 22 13 54 24 31 26 43 25 111 -3 147 -52 232 -260 451 -183 193
        -249 294 -293 452 -28 97 -36 268 -18 371 8 42 13 77 12 77 -2 0 -15 -20 -30
        -45z"/>
        <path d="M7891 6124 c-134 -47 -188 -144 -80 -144 82 0 209 72 209 117 0 44
        -50 54 -129 27z"/>
        <path d="M8558 6129 c-27 -15 -22 -34 17 -68 34 -30 117 -61 162 -61 32 0 63
        17 63 35 0 24 -70 72 -129 89 -66 18 -89 19 -113 5z"/>
        <path d="M5803 6093 c-37 -14 15 -82 92 -121 82 -40 145 -40 145 2 0 61 -170
        147 -237 119z"/>
        <path d="M12045 5960 c-14 -23 9 -53 58 -76 55 -25 92 -30 102 -14 13 22 -8
        50 -57 74 -54 27 -93 33 -103 16z"/>
        <path d="M8149 5919 c-39 -23 -69 -65 -69 -96 0 -21 23 -46 54 -57 53 -19 156
        53 156 109 0 60 -73 83 -141 44z"/>
        <path d="M3495 5891 c-63 -29 -94 -107 -64 -162 8 -16 7 -25 -6 -39 -16 -17
        -15 -19 4 -29 30 -16 157 -14 191 4 95 49 93 183 -3 228 -45 22 -72 21 -122
        -2z"/>
        <path d="M9213 5880 c-42 -25 -66 -73 -61 -118 4 -31 -1 -41 -34 -73 -31 -29
        -38 -43 -38 -73 0 -51 23 -90 64 -110 42 -20 59 -20 100 -1 38 18 66 62 66
        104 0 24 6 33 34 46 124 59 79 245 -59 245 -22 0 -54 -9 -72 -20z"/>
        <path d="M7373 5876 c-84 -38 6 -116 133 -116 116 0 148 52 62 100 -51 29
        -149 37 -195 16z"/>
        <path d="M577 5855 c-21 -21 -21 -34 -1 -63 38 -55 199 -101 252 -73 46 25 14
        85 -68 126 -51 26 -161 32 -183 10z"/>
        <path d="M2013 5813 c-29 -6 -72 -50 -80 -81 -4 -17 1 -39 13 -61 36 -68 135
        -74 188 -10 28 33 31 53 16 93 -16 43 -80 71 -137 59z"/>
        <path d="M5465 5800 c-50 -24 -75 -65 -75 -119 0 -33 7 -49 34 -79 33 -35 37
        -37 100 -37 58 0 68 3 95 29 74 71 52 180 -42 215 -41 16 -67 14 -112 -9z"/>
        <path d="M5858 5804 c-35 -19 -48 -43 -48 -93 0 -108 152 -158 214 -70 65 94
        -62 220 -166 163z"/>
        <path d="M4024 5690 c-88 -35 29 -150 153 -150 94 0 116 52 46 109 -54 45
        -144 63 -199 41z"/>
        <path d="M8831 5660 c-73 -17 -126 -79 -126 -147 0 -38 5 -49 32 -73 63 -57
        160 -45 222 25 88 101 6 227 -128 195z"/>
        <path d="M12757 5596 c-103 -37 -99 -116 5 -116 l38 0 0 65 c0 36 -1 65 -2 65
        -2 -1 -20 -7 -41 -14z"/>
        <path d="M1593 5583 c-38 -7 -83 -57 -83 -91 0 -39 41 -88 81 -97 115 -25 200
        90 118 159 -17 14 -36 26 -42 26 -7 0 -21 2 -32 4 -11 2 -30 2 -42 -1z"/>
        <path d="M3880 5528 c-57 -30 -71 -52 -47 -75 27 -27 169 -25 216 2 19 11 39
        28 45 38 33 54 -125 80 -214 35z"/>
        <path d="M6241 5461 c-34 -156 -19 -314 45 -473 l34 -87 -25 -25 c-31 -31 -31
        -38 -2 -71 15 -18 36 -28 66 -32 38 -5 53 -16 125 -88 93 -94 141 -127 351
        -238 183 -97 270 -153 337 -215 50 -46 108 -117 108 -132 0 -4 -17 -2 -37 6
        -75 26 -148 11 -159 -33 -14 -55 78 -118 164 -111 26 2 54 6 62 9 12 3 16 -9
        20 -60 l5 -64 34 144 c30 130 32 148 21 189 -31 116 -113 227 -220 300 -30 21
        -127 74 -215 118 -88 45 -178 92 -199 105 l-40 25 32 7 c95 21 134 152 64 217
        -54 50 -103 61 -165 34 -41 -17 -63 -43 -80 -90 l-13 -38 -48 52 c-111 124
        -190 293 -231 495 l-22 110 -12 -54z"/>
        <path d="M3668 5434 c-77 -41 -75 -169 2 -209 65 -33 149 -6 183 59 17 32 18
        43 8 76 -17 57 -61 90 -119 90 -26 -1 -59 -7 -74 -16z"/>
        <path d="M1980 5412 c-51 -25 -83 -78 -77 -125 12 -88 113 -140 219 -112 59
        15 95 46 110 96 32 109 -133 201 -252 141z"/>
        <path d="M5555 5391 c-39 -16 -60 -49 -49 -78 17 -47 57 -68 134 -68 95 0 132
        36 99 97 -23 42 -130 71 -184 49z"/>
        <path d="M11310 5382 c-19 -9 -44 -31 -55 -49 -16 -26 -27 -32 -53 -33 -75 0
        -132 -52 -132 -118 0 -64 93 -116 169 -94 44 14 91 56 91 83 0 16 8 19 45 19
        86 0 145 42 145 103 0 43 -17 67 -63 88 -53 23 -102 24 -147 1z"/>
        <path d="M1359 5364 c-10 -13 -10 -22 0 -47 18 -49 18 -50 -16 -57 -72 -16
        -113 -71 -80 -108 8 -9 18 -35 22 -56 14 -81 111 -139 194 -116 30 8 48 7 81
        -5 52 -18 146 -19 180 -2 62 31 23 107 -76 148 l-53 22 -7 60 c-8 72 -40 113
        -116 151 -59 30 -109 33 -129 10z"/>
        <path d="M80 5334 c-64 -28 -80 -51 -80 -114 0 -62 9 -79 60 -109 42 -25 133
        -28 183 -7 79 33 111 122 65 181 -46 58 -153 81 -228 49z"/>
        <path d="M3023 5330 c-76 -32 53 -121 178 -123 60 -1 87 19 70 51 -26 48 -192
        97 -248 72z"/>
        <path d="M9437 5297 c-80 -46 -87 -109 -12 -115 45 -4 111 35 125 74 13 32 13
        30 -6 48 -22 22 -62 20 -107 -7z"/>
        <path d="M7419 5255 c-71 -38 -23 -115 71 -115 54 0 90 22 90 55 0 59 -96 95
        -161 60z"/>
        <path d="M6021 5234 c-28 -36 -26 -58 8 -96 24 -27 36 -33 71 -33 77 0 105 71
        51 126 -40 40 -100 41 -130 3z"/>
        <path d="M10105 5201 c-46 -19 -59 -48 -63 -136 -3 -79 -2 -85 26 -117 15 -18
        34 -48 41 -66 38 -93 170 -133 229 -69 42 46 36 92 -18 154 -17 19 -30 40 -30
        47 0 8 -6 19 -14 25 -7 6 -16 35 -18 63 -4 42 -11 57 -37 80 -32 29 -75 36
        -116 19z"/>
        <path d="M9764 5186 c-46 -20 -74 -62 -74 -110 0 -134 181 -207 277 -111 107
        107 -56 285 -203 221z"/>
        <path d="M2924 5166 c-17 -7 -41 -26 -53 -42 -18 -23 -29 -28 -61 -25 -69 5
        -180 -59 -180 -105 0 -61 156 -54 209 10 13 15 16 15 37 -5 46 -43 152 -21
        191 38 24 36 22 89 -4 114 -26 27 -97 34 -139 15z"/>
        <path d="M5250 5138 c-33 -17 -48 -32 -55 -55 -6 -18 -21 -43 -33 -56 -12 -13
        -22 -32 -22 -43 0 -52 78 -103 171 -111 85 -8 127 3 170 45 21 20 49 45 63 55
        21 14 26 26 26 58 0 74 -70 113 -220 126 -44 3 -64 -1 -100 -19z"/>
        <path d="M3974 5131 c-46 -21 -59 -43 -43 -73 37 -68 248 -62 265 9 17 67
        -124 108 -222 64z"/>
        <path d="M10626 5129 c-29 -22 -35 -71 -13 -100 35 -45 110 -52 151 -14 35 32
        34 69 -3 106 -37 36 -94 40 -135 8z"/>
        <path d="M11648 5111 c-27 -24 -33 -36 -33 -70 0 -91 105 -131 166 -63 44 49
        34 119 -22 148 -42 21 -75 17 -111 -15z"/>
        <path d="M7605 5101 c-48 -29 -67 -57 -72 -104 -13 -109 93 -178 202 -133 70
        30 100 141 54 200 -44 56 -127 73 -184 37z"/>
        <path d="M8275 5101 c-144 -65 -62 -265 90 -222 22 6 47 17 55 24 76 60 62
        166 -26 203 -44 18 -71 17 -119 -5z"/>
        <path d="M4782 5098 c-53 -26 -32 -95 41 -131 96 -48 158 43 73 107 -38 29
        -84 39 -114 24z"/>
        <path d="M6954 5076 c-94 -41 -80 -147 23 -175 136 -37 215 121 87 175 -41 17
        -70 17 -110 0z"/>
        <path d="M11074 4986 c-19 -19 -34 -44 -34 -55 0 -68 68 -113 135 -91 111 37
        93 180 -22 180 -38 0 -50 -5 -79 -34z"/>
        <path d="M3620 4942 c-94 -47 -40 -172 74 -172 113 0 156 107 67 167 -41 28
        -93 30 -141 5z"/>
        <path d="M4275 4886 c-39 -17 -81 -67 -90 -105 -10 -46 18 -99 62 -117 119
        -50 261 71 211 181 -23 51 -114 71 -183 41z"/>
        <path d="M9227 4802 c-10 -10 -17 -34 -17 -52 0 -86 176 -175 248 -124 53 37
        6 135 -83 175 -53 25 -127 25 -148 1z"/>
        <path d="M8819 4787 c-68 -45 -75 -119 -18 -176 61 -61 158 -64 216 -6 57 57
        40 141 -37 184 -51 29 -117 28 -161 -2z"/>
        <path d="M9654 4751 c-109 -50 -63 -171 66 -171 101 0 168 91 108 148 -49 45
        -108 53 -174 23z"/>
        <path d="M3143 4700 c-44 -23 -68 -51 -79 -94 -5 -19 -16 -28 -45 -36 -82 -22
        -140 -101 -123 -168 29 -116 241 -107 298 13 17 35 17 50 1 101 -6 18 -2 22
        28 28 52 10 70 35 62 90 -12 77 -68 103 -142 66z"/>
        <path d="M1580 4690 c-11 -11 -20 -31 -20 -45 0 -14 9 -34 20 -45 l20 -20 -20
        -20 c-16 -16 -18 -25 -10 -39 31 -59 258 -60 294 -2 13 20 -8 42 -54 58 -31
        11 -46 22 -43 30 10 26 -8 64 -40 83 -44 27 -120 27 -147 0z"/>
        <path d="M7824 4704 c-35 -8 -67 -50 -66 -85 3 -97 200 -171 279 -105 15 12
        38 28 51 35 32 17 27 35 -20 75 -74 64 -172 96 -244 80z"/>
        <path d="M4173 4635 c-47 -20 -68 -68 -54 -117 27 -88 156 -106 197 -27 18 36
        18 65 -2 98 -30 50 -88 70 -141 46z"/>
        <path d="M6396 4598 c-100 -59 -101 -189 -3 -262 39 -29 125 -29 163 0 51 38
        69 71 69 129 0 85 -56 145 -142 152 -37 3 -57 -1 -87 -19z"/>
        <path d="M10609 4601 c-21 -17 -22 -22 -11 -45 26 -58 181 -89 233 -47 21 17
        22 22 11 45 -26 58 -181 89 -233 47z"/>
        <path d="M5250 4580 c-21 -40 38 -93 117 -106 80 -12 119 15 88 62 -38 58
        -181 89 -205 44z"/>
        <path d="M1997 4550 c-14 -11 -31 -36 -37 -54 -31 -95 90 -182 180 -129 49 29
        66 105 34 151 -36 52 -130 69 -177 32z"/>
        <path d="M2250 4422 c-40 -20 -80 -74 -80 -109 0 -42 29 -84 73 -104 74 -33
        140 -19 190 40 89 106 -52 239 -183 173z"/>
        <path d="M9108 4424 c-89 -27 -138 -98 -108 -153 12 -23 80 -51 123 -51 54 0
        135 29 171 61 111 97 -17 195 -186 143z"/>
        <path d="M10597 4402 c-20 -22 -21 -39 -3 -70 33 -61 131 -84 162 -38 13 21
        14 29 2 53 -29 61 -126 94 -161 55z"/>
        <path d="M5979 4357 c-82 -44 -109 -116 -58 -159 81 -69 279 6 279 106 0 30
        -5 40 -32 56 -47 28 -132 27 -189 -3z"/>
        <path d="M4604 4344 c-31 -30 -27 -64 13 -106 76 -79 223 -71 223 13 0 91
        -171 159 -236 93z"/>
        <path d="M4170 4286 c-61 -17 -118 -48 -169 -90 -45 -37 -123 -127 -117 -134
        2 -2 26 13 54 32 155 112 350 145 485 83 29 -13 77 -47 107 -76 53 -50 54 -52
        25 -48 -137 23 -189 -134 -65 -198 19 -10 30 -25 34 -49 8 -39 55 -93 91 -102
        17 -4 24 -15 29 -43 13 -81 85 -124 167 -100 104 32 144 173 62 226 -24 16
        -33 66 -13 78 6 3 10 23 10 45 0 31 -6 44 -35 69 -29 25 -44 31 -83 31 -27 0
        -57 -7 -70 -16 -21 -14 -23 -13 -47 13 -19 22 -21 30 -11 38 7 6 28 23 46 38
        l33 29 -29 24 c-167 138 -350 192 -504 150z"/>
        <path d="M1644 4259 c-42 -12 -84 -53 -84 -82 0 -70 147 -107 236 -59 18 9 25
        8 40 -9 50 -56 156 -77 162 -33 4 29 -31 70 -78 90 -29 13 -40 24 -40 40 0 12
        -12 32 -26 43 -22 17 -40 21 -103 20 -42 0 -90 -5 -107 -10z"/>
        <path d="M6980 4260 c-90 -17 -107 -59 -37 -90 51 -24 153 -26 203 -5 97 40
        -40 120 -166 95z"/>
        <path d="M1173 4236 c-58 -26 -52 -85 11 -106 30 -10 46 -8 116 16 114 37 121
        71 18 85 -29 3 -66 9 -83 13 -18 3 -43 0 -62 -8z"/>
        <path d="M10678 4189 c-24 -14 -23 -31 5 -56 45 -41 97 -40 97 1 0 42 -66 77
        -102 55z"/>
        <path d="M10136 4134 c-24 -24 -19 -43 22 -84 73 -73 212 -82 212 -14 0 72
        -183 149 -234 98z"/>
        <path d="M2384 4069 c-18 -5 -46 -25 -63 -44 -25 -29 -31 -44 -31 -83 0 -88
        56 -142 145 -142 57 0 100 21 125 63 43 70 14 163 -63 197 -46 21 -66 23 -113
        9z"/>
        <path d="M3645 4055 c-112 -40 -65 -123 52 -93 46 11 86 49 77 73 -5 13 -55
        35 -78 35 -6 -1 -29 -7 -51 -15z"/>
        <path d="M7680 4038 c-13 -7 -31 -25 -39 -39 -13 -24 -12 -30 6 -65 43 -83
        176 -148 255 -125 69 21 75 79 16 146 -59 68 -184 111 -238 83z"/>
        <path d="M3841 4001 c-18 -35 -23 -60 -23 -112 1 -57 -2 -67 -14 -62 -10 4
        -14 14 -11 29 l4 23 -29 -24 c-16 -14 -38 -25 -49 -25 -32 0 -69 -44 -69 -83
        0 -25 -9 -42 -38 -70 l-38 -38 -39 17 c-68 28 -155 -6 -155 -61 0 -32 35 -72
        75 -86 38 -14 39 -16 26 -52 -5 -14 -14 -59 -20 -100 -17 -122 3 -237 66 -379
        23 -52 24 -58 10 -79 -14 -19 -14 -25 -2 -50 8 -15 30 -37 50 -49 41 -25 45
        -47 10 -60 -14 -5 -30 -21 -37 -34 -14 -32 11 -73 53 -89 22 -9 29 -18 29 -37
        0 -29 -33 -106 -58 -134 -17 -20 -17 -20 9 -1 122 92 128 99 153 161 20 52 22
        70 15 109 -7 40 -6 51 11 72 17 22 18 28 7 50 -7 13 -26 32 -41 42 -19 13 -45
        55 -81 132 -73 156 -89 219 -90 356 0 102 2 114 24 144 14 19 23 44 23 63 -2
        30 35 126 48 126 13 0 28 -45 34 -97 13 -135 146 -280 284 -311 34 -8 53 -6
        109 15 37 13 77 33 89 44 11 10 29 19 40 19 32 1 99 36 122 65 32 41 38 88 15
        131 l-18 36 37 38 c32 31 38 45 38 79 0 22 4 41 9 41 20 0 41 33 41 63 0 59
        -75 120 -161 133 -24 3 -70 17 -103 31 -95 41 -214 41 -269 1 -15 -11 -9 -13
        40 -13 43 -1 75 -9 124 -32 57 -26 68 -36 74 -62 10 -46 48 -85 104 -110 43
        -18 51 -26 56 -55 4 -18 5 -46 3 -62 -2 -24 -7 -29 -28 -26 -14 1 -51 3 -82 5
        -55 3 -59 4 -110 60 -29 31 -80 72 -113 90 -50 27 -64 42 -88 87 -15 30 -31
        82 -35 115 l-8 60 -23 -44z m207 -425 c37 -17 40 -21 31 -43 -15 -39 -11 -68
        16 -107 25 -36 25 -38 8 -67 -21 -35 -33 -36 -100 -4 -68 31 -133 99 -173 178
        l-31 62 43 5 c47 6 88 25 88 40 0 6 17 -2 38 -18 22 -15 57 -36 80 -46z"/>
        <path d="M6940 3979 c-73 -29 -94 -108 -45 -167 14 -17 25 -43 25 -59 0 -39
        23 -69 63 -82 24 -8 35 -20 42 -44 14 -45 70 -65 135 -47 55 15 120 76 120
        113 0 32 -42 67 -81 67 -26 0 -29 3 -29 34 0 18 -9 45 -20 59 -11 14 -20 30
        -20 35 0 20 -54 75 -87 88 -37 16 -68 17 -103 3z"/>
        <path d="M9133 3921 c-65 -30 -95 -108 -55 -144 70 -63 221 26 191 113 -10 27
        -45 50 -77 50 -9 0 -36 -9 -59 -19z"/>
        <path d="M8924 3910 c-46 -18 -40 -63 11 -80 47 -15 105 9 105 43 0 38 -63 59
        -116 37z"/>
        <path d="M5077 3885 c-79 -28 -122 -91 -115 -167 19 -188 294 -211 349 -30 24
        80 -38 176 -128 201 -48 14 -59 13 -106 -4z"/>
        <path d="M0 3765 c0 -100 1 -105 23 -110 65 -14 101 -8 131 21 68 69 -8 194
        -119 194 l-35 0 0 -105z"/>
        <path d="M11504 3820 c-27 -11 -54 -48 -54 -75 1 -68 125 -124 225 -103 47 10
        85 45 85 79 0 26 -49 80 -87 95 -36 15 -136 18 -169 4z"/>
        <path d="M10370 3813 c-102 -37 -31 -173 90 -173 43 0 89 26 96 54 18 72 -103
        149 -186 119z"/>
        <path d="M7505 3700 c-28 -11 -48 -37 -42 -54 14 -37 136 -25 158 16 10 18 8
        24 -7 35 -20 14 -78 16 -109 3z"/>
        <path d="M8291 3663 c-124 -61 -69 -213 78 -215 55 0 100 20 130 58 77 98 -82
        219 -208 157z"/>
        <path d="M9939 3637 c-86 -46 -74 -114 18 -104 86 9 165 74 134 111 -20 24
        -99 21 -152 -7z"/>
        <path d="M12423 3631 c-94 -58 -36 -201 82 -201 127 0 159 146 45 205 -40 20
        -89 19 -127 -4z"/>
        <path d="M424 3621 c-51 -23 -74 -55 -74 -102 0 -99 137 -149 254 -94 40 19
        76 66 76 100 0 33 -35 80 -73 98 -46 22 -132 21 -183 -2z"/>
        <path d="M0 3521 c0 -88 3 -91 80 -91 96 0 70 94 -41 151 l-39 19 0 -79z"/>
        <path d="M8920 3578 c-58 -31 -20 -97 68 -117 82 -19 138 11 115 62 -21 46
        -135 80 -183 55z"/>
        <path d="M3025 3566 c-94 -41 -124 -168 -59 -253 35 -47 84 -66 152 -61 66 6
        100 29 131 91 19 38 22 56 16 93 -16 107 -139 174 -240 130z"/>
        <path d="M7305 3548 c-27 -15 -35 -28 -35 -60 0 -79 194 -137 278 -82 53 35
        10 117 -76 142 -49 15 -141 15 -167 0z"/>
        <path d="M4644 3521 c-78 -47 -97 -120 -45 -172 16 -16 36 -29 44 -29 10 0 13
        -8 9 -25 -6 -36 54 -95 98 -95 75 0 93 50 39 106 -31 32 -31 32 -10 43 42 23
        64 98 41 142 -26 47 -120 64 -176 30z"/>
        <path d="M9621 3513 c-62 -31 -90 -111 -56 -160 9 -13 33 -28 54 -34 34 -10
        45 -9 83 9 75 37 101 115 55 167 -29 34 -89 42 -136 18z"/>
        <path d="M1797 3472 c-24 -26 -21 -47 9 -71 50 -39 144 -17 144 33 0 47 -119
        76 -153 38z"/>
        <path d="M6297 3470 c-84 -25 -72 -87 19 -103 66 -12 153 28 139 65 -8 19 -75
        48 -108 47 -12 0 -35 -5 -50 -9z"/>
        <path d="M12710 3441 c-41 -21 -80 -74 -80 -107 0 -57 49 -104 108 -104 61 0
        62 2 62 121 l0 109 -28 0 c-15 0 -43 -8 -62 -19z"/>
        <path d="M2451 3364 c-25 -21 -31 -34 -31 -64 0 -73 75 -130 170 -130 44 0 56
        4 81 29 18 18 29 40 29 57 0 102 -169 176 -249 108z"/>
        <path d="M5673 3379 c-18 -5 -41 -21 -50 -35 -16 -25 -16 -28 3 -63 53 -99
        244 -107 244 -11 0 73 -111 134 -197 109z"/>
        <path d="M7302 3310 c-46 -28 -67 -82 -53 -132 39 -129 231 -90 231 46 0 83
        -104 133 -178 86z"/>
        <path d="M8133 3260 c-38 -23 -59 -58 -45 -72 28 -28 168 48 148 80 -11 18
        -68 14 -103 -8z"/>
        <path d="M4389 3255 c-89 -48 -25 -187 77 -167 38 7 74 50 74 89 0 73 -83 115
        -151 78z"/>
        <path d="M1712 3225 c-30 -22 -52 -67 -52 -109 0 -63 87 -126 173 -126 59 0
        109 34 121 82 11 44 -17 122 -52 146 -35 23 -161 28 -190 7z"/>
        <path d="M10880 3202 c-44 -22 -62 -65 -37 -89 41 -41 159 -4 165 52 7 53 -58
        72 -128 37z"/>
        <path d="M2100 3154 c-44 -19 -90 -62 -90 -85 0 -61 148 -52 217 13 25 23 30
        57 11 76 -17 17 -96 14 -138 -4z"/>
        <path d="M40 3116 c-35 -13 -35 -13 -38 -79 l-3 -67 29 0 c47 0 121 30 157 65
        38 36 43 55 19 79 -19 20 -112 20 -164 2z"/>
        <path d="M2773 3059 c-38 -11 -83 -62 -83 -95 0 -49 59 -82 128 -70 101 16
        139 121 58 160 -38 18 -56 19 -103 5z"/>
        <path d="M8383 3051 c-43 -27 -52 -59 -22 -84 40 -33 130 2 137 53 7 48 -58
        65 -115 31z"/>
        <path d="M9408 3000 c-98 -52 -113 -177 -29 -253 64 -58 160 -58 218 1 26 27
        28 28 70 14 103 -34 233 33 201 104 -22 47 -122 73 -200 51 -23 -6 -29 -2 -46
        28 -41 68 -140 94 -214 55z"/>
        <path d="M11479 2971 c-37 -37 -37 -55 1 -93 28 -27 36 -30 73 -25 46 6 87 43
        87 78 0 11 -11 31 -25 44 -36 37 -97 35 -136 -4z"/>
        <path d="M6000 2968 c-25 -12 -65 -23 -89 -24 -131 -9 -179 -143 -71 -199 55
        -28 143 -13 183 32 28 32 32 84 9 113 l-20 25 31 26 c18 15 27 30 23 37 -10
        16 -13 15 -66 -10z"/>
        <path d="M6544 2975 c-58 -12 -199 -74 -190 -83 3 -2 46 3 97 12 51 9 112 16
        136 16 l44 0 -20 -26 c-27 -35 -27 -75 2 -102 54 -51 138 -56 221 -13 l55 30
        46 -51 c49 -54 103 -158 112 -213 3 -19 11 -35 17 -35 18 1 128 28 133 34 3 2
        -17 47 -43 98 -64 122 -187 250 -284 296 -112 52 -207 63 -326 37z"/>
        <path d="M7840 2920 c-24 -24 -25 -38 -4 -68 29 -42 114 -19 114 31 0 25 -36
        57 -65 57 -14 0 -34 -9 -45 -20z"/>
        <path d="M6266 2839 c-49 -43 -79 -91 -91 -147 -5 -25 -11 -32 -23 -28 -15 5
        -15 4 1 -8 24 -19 22 -89 -5 -137 -20 -35 -20 -39 -5 -62 9 -14 30 -31 47 -38
        17 -8 51 -41 77 -73 44 -57 45 -61 40 -113 -7 -71 -41 -140 -79 -159 -27 -14
        -31 -14 -49 2 -11 10 -38 45 -60 78 l-40 59 30 20 c37 23 71 76 71 109 0 42
        -33 62 -97 61 l-56 -2 6 72 c9 107 32 163 94 225 l53 54 -32 -7 c-90 -19 -161
        -76 -202 -164 -18 -40 -21 -66 -22 -188 l-1 -143 39 -52 c106 -146 130 -163
        253 -173 72 -6 83 -5 107 14 29 23 88 133 88 164 0 14 4 17 18 12 61 -26 151
        -20 240 16 70 28 83 208 25 332 -39 83 -127 177 -196 212 -54 26 -147 34 -177
        15 -11 -7 -6 -10 21 -10 95 0 225 -147 273 -309 34 -115 8 -242 -47 -226 -75
        23 -151 91 -161 145 -10 57 -65 163 -103 197 l-36 33 5 82 c3 60 11 95 27 126
        12 24 21 46 18 48 -2 2 -25 -14 -51 -37z"/>
        <path d="M8575 2856 c-44 -20 -85 -68 -91 -108 -5 -29 -1 -41 23 -68 26 -29
        37 -34 90 -38 46 -3 71 1 106 16 104 46 116 166 20 203 -35 13 -113 11 -148
        -5z"/>
        <path d="M1120 2843 c-60 -24 -67 -83 -18 -139 63 -72 185 -98 243 -52 23 18
        26 26 21 56 -6 41 -46 86 -99 113 -40 21 -121 33 -147 22z"/>
        <path d="M11220 2813 c-30 -11 -60 -47 -60 -73 0 -91 185 -114 231 -29 33 63
        -85 133 -171 102z"/>
        <path d="M4853 2771 c-49 -23 -77 -61 -77 -107 0 -65 78 -113 155 -95 128 29
        162 162 53 207 -45 19 -81 17 -131 -5z"/>
        <path d="M5312 2778 c-19 -19 -14 -43 13 -72 65 -70 225 -91 225 -30 0 23 -54
        77 -95 95 -46 21 -125 25 -143 7z"/>
        <path d="M12113 2770 c-128 -26 -138 -126 -14 -138 68 -6 136 19 157 59 14 28
        13 31 -10 54 -14 14 -34 25 -45 25 -11 0 -25 2 -33 4 -7 2 -32 0 -55 -4z"/>
        <path d="M3317 2750 c-60 -23 -115 -64 -130 -97 -9 -21 -8 -27 8 -39 10 -8 31
        -14 46 -14 15 0 50 -14 77 -31 27 -17 68 -33 90 -36 34 -5 44 -1 67 21 29 29
        27 50 -6 97 -18 26 -18 27 1 44 24 22 26 60 4 69 -31 12 -110 5 -157 -14z"/>
        <path d="M2266 2684 c-35 -35 -1 -96 64 -115 33 -10 43 -9 65 5 56 37 5 126
        -74 126 -23 0 -46 -7 -55 -16z"/>
        <path d="M10360 2633 c-81 -54 -172 -152 -213 -231 -104 -197 -85 -404 55
        -620 22 -34 42 -61 44 -59 2 2 -15 57 -38 123 -40 111 -43 126 -43 224 0 100
        2 108 36 180 48 101 105 170 194 236 41 30 75 60 75 67 0 12 -47 117 -52 117
        -2 0 -28 -16 -58 -37z"/>
        <path d="M12535 2645 c-47 -46 -23 -109 52 -135 24 -9 39 -8 67 4 60 25 62
        100 3 136 -45 28 -92 26 -122 -5z"/>
        <path d="M5914 2646 c-210 -66 -378 -264 -429 -507 -9 -41 -18 -146 -21 -234
        -6 -193 -19 -280 -45 -313 -10 -14 -19 -35 -19 -47 0 -29 -73 -106 -126 -134
        -50 -26 -40 -26 77 0 95 21 98 23 167 88 83 78 76 49 91 401 12 291 37 393
        130 528 54 78 95 121 166 177 33 26 62 49 64 51 8 7 -13 3 -55 -10z"/>
        <path d="M2444 2571 c-104 -45 71 -130 201 -98 43 10 50 16 50 36 0 37 -61 64
        -154 68 -42 1 -86 -1 -97 -6z"/>
        <path d="M9259 2557 c-65 -44 -73 -106 -22 -161 58 -63 152 -82 231 -46 97 44
        85 158 -21 209 -61 29 -143 28 -188 -2z"/>
        <path d="M1715 2521 c-53 -24 -105 -83 -105 -120 0 -34 35 -68 77 -77 49 -10
        134 20 176 62 49 50 53 94 11 132 -32 28 -102 29 -159 3z"/>
        <path d="M11950 2534 c-26 -11 -60 -47 -60 -64 0 -18 32 -51 70 -70 31 -17
        128 -17 157 -1 54 29 51 80 -9 115 -30 18 -131 31 -158 20z"/>
        <path d="M1059 2501 c-35 -35 -38 -77 -9 -114 43 -54 136 -40 158 23 32 91
        -80 159 -149 91z"/>
        <path d="M6995 2471 c-62 -15 -135 -70 -135 -101 0 -62 153 -48 228 22 58 56
        4 102 -93 79z"/>
        <path d="M7650 2463 c-34 -12 -60 -47 -60 -79 0 -45 38 -74 97 -74 38 0 50 5
        79 34 42 42 42 59 5 97 -23 22 -38 29 -68 28 -21 0 -45 -3 -53 -6z"/>
        <path d="M12345 2456 c-37 -16 -69 -51 -60 -65 19 -32 137 15 143 57 3 18 -1
        22 -25 22 -15 -1 -41 -7 -58 -14z"/>
        <path d="M803 2431 c-111 -51 -34 -163 101 -147 88 10 141 72 100 117 -44 50
        -129 62 -201 30z"/>
        <path d="M1385 2367 c-39 -18 -84 -64 -91 -94 -10 -39 13 -56 68 -50 26 3 50
        2 53 -4 11 -16 82 -10 106 10 33 26 32 83 -2 117 -31 31 -91 40 -134 21z"/>
        <path d="M11888 2344 c-34 -18 -48 -43 -48 -86 0 -89 115 -137 180 -76 93 86
        -19 224 -132 162z"/>
        <path d="M3780 2330 c-62 -62 10 -173 113 -173 33 0 46 6 67 30 24 26 29 28
        45 16 12 -8 47 -13 94 -13 137 1 212 60 124 97 -51 21 -159 13 -207 -15 l-36
        -21 -15 30 c-34 64 -141 93 -185 49z"/>
        <path d="M10420 2330 c-28 -28 -10 -64 43 -85 79 -32 148 6 112 61 -30 46
        -119 60 -155 24z"/>
        <path d="M9263 2254 c-43 -22 -61 -66 -39 -99 75 -115 309 -53 246 66 -26 47
        -141 65 -207 33z"/>
        <path d="M2232 2240 c-58 -36 -69 -105 -23 -151 24 -23 38 -29 73 -29 105 0
        153 110 76 175 -36 31 -81 32 -126 5z"/>
        <path d="M12563 2251 c-109 -27 -108 -96 1 -95 55 1 113 25 123 50 13 35 -59
        61 -124 45z"/>
        <path d="M842 2204 c-76 -38 -84 -84 -14 -84 69 1 162 60 149 95 -10 24 -76
        18 -135 -11z"/>
        <path d="M10648 2215 c-102 -28 -214 -120 -264 -216 -23 -45 -28 -70 -32 -151
        -3 -68 -1 -98 7 -98 6 0 11 11 11 23 0 47 63 151 135 223 115 115 240 166 322
        132 15 -6 32 -10 37 -9 17 4 -3 -107 -29 -158 -20 -40 -35 -56 -63 -68 -64
        -27 -141 -84 -173 -127 -23 -33 -41 -46 -82 -59 -74 -23 -155 -30 -207 -19
        l-45 11 44 -40 c24 -21 61 -44 83 -51 l39 -11 -34 -36 c-42 -44 -49 -64 -33
        -86 9 -13 26 -17 60 -17 26 1 51 4 56 7 6 4 24 -4 41 -16 67 -48 138 -69 235
        -69 175 0 310 66 382 189 23 39 27 59 30 143 3 65 0 109 -8 128 -16 38 -80 77
        -140 85 -92 13 -87 9 -92 72 -5 77 -61 199 -99 219 -34 17 -117 17 -181 -1z
        m409 -396 c38 -14 73 -48 73 -72 0 -17 -4 -15 -35 12 -42 36 -72 46 -121 37
        -106 -20 -140 -162 -51 -216 l29 -18 -32 -17 c-91 -47 -210 -69 -297 -55 -31
        5 -58 11 -60 14 -3 3 4 15 16 27 12 13 21 32 21 43 0 16 14 27 53 45 36 16 78
        51 137 111 47 48 94 90 105 93 37 9 134 7 162 -4z"/>
        <path d="M8725 2075 c-78 -28 -100 -90 -42 -125 17 -11 41 -20 53 -20 30 0 33
        -7 21 -45 -22 -71 55 -151 136 -141 110 13 153 132 76 209 -20 19 -28 35 -24
        48 21 66 -114 112 -220 74z"/>
        <path d="M4405 2056 c-105 -49 -134 -170 -52 -213 58 -30 121 -20 237 35 38
        19 51 50 26 64 -9 5 -16 20 -16 33 0 14 -13 39 -28 56 -24 27 -37 33 -83 36
        -33 2 -66 -2 -84 -11z"/>
        <path d="M7963 2056 c-105 -47 -43 -199 95 -236 32 -8 52 -8 75 -1 52 19 67
        39 67 91 0 47 1 47 36 53 73 12 97 64 43 93 -28 14 -85 15 -189 3 -8 -1 -33 1
        -55 5 -26 4 -51 1 -72 -8z"/>
        <path d="M9632 2024 c-128 -63 -138 -164 -16 -164 91 0 204 75 204 135 0 58
        -100 73 -188 29z"/>
        <path d="M3465 1984 c-46 -24 -64 -44 -76 -84 -23 -75 23 -143 108 -165 43
        -11 45 -13 26 -23 -30 -16 -63 -74 -63 -110 0 -18 10 -42 24 -59 21 -24 32
        -28 73 -27 87 1 155 63 155 141 0 44 -38 83 -80 83 l-27 0 27 23 c51 43 64
        106 34 165 -32 62 -135 90 -201 56z"/>
        <path d="M1126 1960 c-67 -21 -107 -92 -86 -155 18 -56 62 -85 126 -85 47 0
        59 4 89 33 102 93 5 249 -129 207z"/>
        <path d="M5004 1898 c-46 -15 -127 -80 -138 -110 -14 -41 -2 -58 42 -58 51 0
        135 43 172 88 59 72 22 111 -76 80z"/>
        <path d="M11320 1863 c-34 -13 -60 -47 -60 -78 0 -55 62 -96 144 -97 93 -1
        143 45 120 110 -15 43 -57 66 -127 69 -34 1 -69 0 -77 -4z"/>
        <path d="M3000 1825 c-67 -19 -110 -57 -94 -83 48 -77 338 -37 322 45 -8 43
        -133 64 -228 38z"/>
        <path d="M2659 1776 c-83 -29 -139 -79 -139 -123 0 -43 74 -42 161 2 48 25 99
        76 99 100 0 33 -59 43 -121 21z"/>
        <path d="M4513 1650 c-62 -37 -62 -132 0 -173 15 -10 46 -17 73 -17 39 0 51 5
        80 34 38 38 43 70 19 116 -30 58 -112 77 -172 40z"/>
        <path d="M9449 1591 c-58 -58 -22 -154 62 -167 21 -4 39 -10 39 -15 0 -20 59
        -74 105 -95 144 -67 261 19 175 128 -29 38 -116 78 -167 78 -37 0 -43 3 -43
        21 0 11 -13 34 -29 50 -23 23 -38 29 -71 29 -33 0 -48 -6 -71 -29z"/>
        <path d="M11400 1613 c-34 -13 -60 -47 -60 -81 0 -43 42 -86 99 -102 36 -9 48
        -8 79 7 49 24 62 60 39 108 -25 52 -106 87 -157 68z"/>
        <path d="M7503 1570 c-47 -28 -54 -67 -18 -98 39 -33 108 -27 142 13 29 33 29
        50 -2 80 -30 31 -77 33 -122 5z"/>
        <path d="M10116 1567 c-43 -31 32 -96 110 -97 39 0 80 30 71 53 -18 47 -138
        75 -181 44z"/>
        <path d="M6044 1521 c-38 -23 -58 -70 -51 -118 23 -140 247 -129 247 12 0 98
        -111 158 -196 106z"/>
        <path d="M7205 1516 c-77 -34 -105 -121 -59 -183 76 -101 265 -66 280 52 14
        100 -117 177 -221 131z"/>
        <path d="M2944 1506 c-35 -16 -59 -64 -50 -100 10 -39 55 -85 96 -97 114 -34
        195 66 123 152 -46 54 -108 71 -169 45z"/>
        <path d="M3598 1504 c-65 -35 -39 -119 51 -166 98 -51 211 -30 211 41 0 93
        -170 175 -262 125z"/>
        <path d="M5090 1491 c-62 -32 -64 -101 -3 -101 37 0 90 26 108 53 37 58 -30
        89 -105 48z"/>
        <path d="M5500 1451 c-96 -51 -99 -146 -6 -215 22 -17 42 -21 101 -21 85 0
        118 17 148 78 15 30 17 43 8 70 -13 39 -54 81 -94 96 -44 17 -118 13 -157 -8z"/>
        <path d="M1769 1431 c-80 -80 26 -190 130 -136 16 8 31 22 35 31 6 15 8 15 24
        1 30 -28 89 -47 142 -47 41 0 56 5 75 25 29 28 30 36 9 76 -19 37 -102 79
        -157 79 -21 0 -51 -7 -67 -15 -25 -13 -32 -13 -57 0 -47 25 -100 19 -134 -14z"/>
        <path d="M4788 1434 c-34 -18 -48 -43 -48 -84 0 -123 186 -195 270 -105 50 53
        19 145 -60 185 -46 24 -123 26 -162 4z"/>
        <path d="M4434 1426 c-33 -15 -44 -33 -44 -72 0 -39 17 -62 62 -85 66 -34 146
        -13 163 42 11 35 -21 88 -67 109 -50 23 -72 24 -114 6z"/>
        <path d="M10570 1386 c0 -23 59 -114 107 -167 125 -135 286 -208 478 -217 96
        -4 132 0 280 29 128 25 197 33 280 34 105 0 114 -2 177 -33 40 -20 81 -49 103
        -74 19 -23 35 -39 35 -35 0 19 -94 195 -112 211 -43 35 -117 66 -188 78 -61
        11 -74 16 -85 39 -17 31 -70 59 -114 59 -69 0 -132 -48 -146 -110 -7 -32 -11
        -34 -99 -49 -236 -42 -480 27 -657 187 -32 30 -59 51 -59 48z"/>
        <path d="M662 1349 c-18 -6 -51 -28 -72 -49 -55 -55 -54 -98 3 -119 72 -27
        197 51 197 122 0 48 -53 67 -128 46z"/>
        <path d="M1450 1345 c-121 -55 -160 -193 -69 -241 100 -51 249 39 249 150 0
        80 -96 128 -180 91z"/>
        <path d="M6684 1346 c-111 -49 -89 -176 31 -176 95 0 166 74 139 145 -16 40
        -108 58 -170 31z"/>
        <path d="M2629 1325 c-34 -18 -62 -76 -53 -110 8 -34 50 -65 86 -65 92 0 152
        106 93 165 -28 29 -84 33 -126 10z"/>
        <path d="M10128 1315 c-81 -43 -106 -111 -49 -135 67 -27 211 51 211 115 0 50
        -84 60 -162 20z"/>
        <path d="M3444 1261 c-65 -30 -116 -79 -112 -110 3 -23 7 -26 40 -24 109 7
        238 143 143 151 -16 1 -48 -6 -71 -17z"/>
        <path d="M10410 1261 c-87 -27 -145 -78 -138 -123 8 -54 107 -60 205 -12 59
        28 86 61 81 96 -6 40 -79 60 -148 39z"/>
        <path d="M9718 1210 c-64 -39 64 -130 183 -130 60 0 87 21 66 54 -34 53 -203
        105 -249 76z"/>
        <path d="M3621 1182 c-35 -19 -71 -72 -71 -104 0 -9 11 -30 24 -45 21 -24 31
        -28 79 -28 64 0 101 21 131 77 17 30 18 39 7 65 -22 53 -104 70 -170 35z"/>
        <path d="M6232 1175 c-28 -12 -33 -19 -30 -42 4 -37 56 -63 126 -63 101 0 142
        47 81 92 -35 26 -133 34 -177 13z"/>
        <path d="M4172 1087 c-18 -5 -46 -25 -62 -43 -39 -45 -47 -93 -24 -141 53
        -107 210 -113 275 -11 44 70 -4 174 -91 198 -42 12 -54 11 -98 -3z"/>
        <path d="M6665 981 c-44 -11 -87 -36 -115 -65 -57 -62 42 -89 140 -39 57 29
        93 74 75 92 -15 15 -65 21 -100 12z"/>
        <path d="M235 968 c-78 -42 -69 -172 14 -209 15 -7 37 -29 49 -50 43 -74 163
        -102 231 -52 124 92 72 272 -79 273 -30 1 -58 9 -85 25 -43 26 -96 32 -130 13z"/>
        <path d="M11614 956 c-68 -31 -94 -93 -59 -143 54 -77 235 -26 235 65 0 27 4
        31 39 37 43 7 67 27 56 46 -5 8 -23 9 -54 4 -56 -8 -83 -9 -141 -1 -29 4 -56
        1 -76 -8z"/>
        <path d="M7764 941 c-28 -17 -64 -73 -64 -101 0 -30 34 -80 65 -94 68 -32 144
        -8 178 58 40 77 -11 156 -101 156 -28 0 -59 -8 -78 -19z"/>
        <path d="M10040 902 c-18 -15 -20 -20 -9 -29 27 -22 107 -20 116 3 15 39 -67
        59 -107 26z"/>
        <path d="M3315 896 c-104 -47 -79 -200 35 -213 79 -8 149 59 136 131 -13 71
        -102 114 -171 82z"/>
        <path d="M8773 829 c-70 -34 -92 -108 -50 -170 37 -54 82 -79 145 -79 98 0
        151 54 139 143 -7 51 -55 100 -114 116 -54 15 -72 14 -120 -10z"/>
        <path d="M12124 761 c-45 -27 -64 -59 -64 -106 0 -47 19 -79 60 -100 84 -43
        180 17 180 112 0 47 -22 81 -66 99 -45 19 -73 18 -110 -5z"/>
        <path d="M3841 740 c-24 -11 -65 -20 -91 -20 -57 0 -110 -36 -110 -75 0 -39
        46 -83 105 -101 64 -18 115 -11 153 21 16 13 48 25 77 29 93 12 157 64 134
        108 -32 59 -176 79 -268 38z"/>
        <path d="M4940 489 c-43 -17 -70 -50 -70 -85 0 -39 19 -60 60 -69 63 -14 150
        44 150 100 0 50 -76 79 -140 54z"/>
        <path d="M2416 459 c-51 -12 -103 -45 -111 -70 -11 -34 12 -49 74 -49 121 1
        220 88 136 120 -30 12 -46 11 -99 -1z"/>
        <path d="M10332 458 c-17 -17 -15 -27 12 -62 34 -46 117 -88 163 -84 54 4 56
        34 7 83 -61 61 -152 93 -182 63z"/>
        <path d="M5993 446 c-37 -17 -53 -43 -53 -85 0 -46 31 -71 86 -71 37 0 51 5
        75 29 35 35 37 71 7 105 -28 32 -73 40 -115 22z"/>
        <path d="M8413 420 c-99 -23 -127 -113 -45 -147 74 -31 182 15 182 77 0 32
        -33 70 -61 70 -10 0 -23 2 -31 4 -7 2 -28 0 -45 -4z"/>
        <path d="M7360 373 c-56 -19 -103 -49 -115 -73 -13 -25 -13 -30 3 -50 36 -44
        145 -45 231 0 66 33 81 92 31 117 -25 13 -121 16 -150 6z"/>
        <path d="M9089 275 c-95 -52 -67 -195 38 -195 49 0 99 31 119 74 20 41 13 78
        -21 112 -28 28 -93 32 -136 9z"/>
        <path d="M4186 174 c-19 -51 116 -144 208 -144 30 0 56 15 56 32 0 20 -70 84
        -115 104 -61 29 -140 32 -149 8z"/>
        <path d="M11415 49 c-16 -5 -41 -18 -55 -29 l-25 -20 118 0 c128 0 138 7 63
        41 -45 21 -57 21 -101 8z"/>
        </g>
      </mask>
    </defs>

  <rect x="0" y="0" width="1280" height="853" fill="url(#gradient)" mask="url(#mask-1)"/>

</svg>
